# xmcd CD database file
#
# Track frame offsets:
#	150
#	9487
#	21147
#	32507
#	46082
#	58205
#	74787
#	86637
#	100077
#	113900
#	125229
#	143617
#	155042
#	167975
#	177325
#	187490
#	200040
#	212290
#	224990
#	237334
#	249300
#	261640
#	275855
#	287510
#	299677
#
# Disc length: 4162 seconds
#
# Revision: 3
# Processed by: cddbd v1.5.1PL0 Copyright (c) Steve Scherf et al.
# Submitted via: CDex 1.51
#
DISCID=9d104019
DTITLE=Various Artist - Classic Country Recordings Volume 1 Disk 1
DYEAR=1900
DGENRE=Country
TTITLE0=Webb Pierce - In The Jailhouse Now
TTITLE1=Crystal Gayle - Don't It Make My Brown Eyes Blue
TTITLE2=Sonny James - Young Love
TTITLE3=Conway Twitty - You've Never Been This Far Before
TTITLE4=Del Reeves - Girl On The Billboard
TTITLE5=Freddy Fender - Secret Love
TTITLE6=Loretta Lynn - The Pill
TTITLE7=Bobby Helms - My Special Angel
TTITLE8=Steve Wariner - Lynda
TTITLE9=Wynn Stewart - It's Such A Pretty World Today
TTITLE10=Juice Newton - The Sweetest Thing
TTITLE11=Freddy Fender - Before The Next Teardrop Falls
TTITLE12=Hank Williams - Jambalaya
TTITLE13=Roger Miller - Chug-A-Lug
TTITLE14=Ned Miller - From A Jack To A King
TTITLE15=Conway Twitty - I've Already Loved You In My Mind
TTITLE16=Hank Williams - Half As Much
TTITLE17=Kitty Wells - Making Believe
TTITLE18=Roy Drusky - Three Hearts In A Tangle
TTITLE19=Gene Watson - Fourteen Carat Mind
TTITLE20=Hank Williams - Cold, Cold Heart
TTITLE21=Slim Whitman - Indian Love Call
TTITLE22=Patsy Cline - Sweet Dreams (Of You)
TTITLE23=Glen Campbell - Galveston
TTITLE24=Mel Tillis - Woman IN The Back Of My Mind
EXTD=
EXTT0=
EXTT1=
EXTT2=
EXTT3=
EXTT4=
EXTT5=
EXTT6=
EXTT7=
EXTT8=
EXTT9=
EXTT10=
EXTT11=
EXTT12=
EXTT13=
EXTT14=
EXTT15=
EXTT16=
EXTT17=
EXTT18=
EXTT19=
EXTT20=
EXTT21=
EXTT22=
EXTT23=
EXTT24=
PLAYORDER=
